<svg width="80" height="57" viewBox="0 0 80 57" fill="none" xmlns="http://www.w3.org/2000/svg">
<path d="M77.3425 52.6709H2.39204C1.07095 52.6709 0 53.64 0 54.8355C0 56.0309 1.07095 57 2.39204 57H77.3425C78.6636 57 79.7346 56.0309 79.7346 54.8355C79.7346 53.64 78.6636 52.6709 77.3425 52.6709Z" fill="#4848EE"/>
<path d="M54.8082 11.6261V24.932H72.8512L54.8082 11.6261Z" fill="#4848EE"/>
<mask id="mask0_1924_467" style="mask-type:alpha" maskUnits="userSpaceOnUse" x="0" y="0" width="80" height="55">
<path d="M0.00939941 0H79.7346V54.1056H0.00939941V0Z" fill="white"/>
</mask>
<g mask="url(#mask0_1924_467)">
<path fill-rule="evenodd" clip-rule="evenodd" d="M76.4124 42.0886C76.4124 43.7458 74.9215 45.0948 73.09 45.0948H71.4289C71.4289 40.1214 66.958 36.0759 61.4621 36.0759C55.966 36.0759 51.4953 40.1214 51.4953 45.0948H46.5119V9.01897H60.7743L76.4124 23.1699V42.0886ZM61.4621 51.1075C57.7974 51.1075 54.8175 48.4109 54.8175 45.0948C54.8175 41.7788 57.7974 39.0821 61.4621 39.0821C65.1266 39.0821 68.1066 41.7788 68.1066 45.0948C68.1066 48.4109 65.1266 51.1075 61.4621 51.1075ZM18.2725 36.0759C12.7765 36.0759 8.30563 40.1214 8.30563 45.0948H4.98341C4.06693 45.0948 3.32222 44.4211 3.32222 43.5916V6.01269C3.32222 4.35532 4.81304 3.00628 6.6446 3.00628H43.1895V45.0948H28.2393C28.2393 40.1214 23.7685 36.0759 18.2725 36.0759ZM18.2725 51.1075C14.6079 51.1075 11.628 48.4109 11.628 45.0948C11.628 41.7788 14.6079 39.0821 18.2725 39.0821C21.9371 39.0821 24.9171 41.7788 24.9171 45.0948C24.9171 48.4109 21.9371 51.1075 18.2725 51.1075ZM79.2479 21.4846L62.6365 6.45307C62.325 6.17123 61.9033 6.01269 61.4621 6.01269H46.5119V1.50321C46.5119 0.672336 45.7689 0 44.8507 0H6.6446C2.97992 0 0 2.69653 0 6.01269V43.5916C0 46.0783 2.23537 48.1011 4.98341 48.1011H8.91813C10.2939 51.593 13.9472 54.1138 18.2725 54.1138C22.5979 54.1138 26.2514 51.593 27.6271 48.1011H52.1076C53.4835 51.593 57.1367 54.1138 61.4621 54.1138C65.7874 54.1138 69.4409 51.593 70.8168 48.1011H73.09C76.7547 48.1011 79.7346 45.4046 79.7346 42.0886V22.5474C79.7346 22.1482 79.5594 21.7664 79.2479 21.4846Z" fill="#263442"/>
</g>
<path fill-rule="evenodd" clip-rule="evenodd" d="M56.4787 13.5283C56.4787 12.6975 55.7358 12.0251 54.8176 12.0251C53.8994 12.0251 53.1564 12.6975 53.1564 13.5283V25.5535C53.1564 26.3844 53.8994 27.0567 54.8176 27.0567H71.429C72.3472 27.0567 73.09 26.3844 73.09 25.5535C73.09 24.7228 72.3472 24.0505 71.429 24.0505H56.4787V13.5283Z" fill="#263442"/>
</svg>
