<svg width="81" height="80" viewBox="0 0 81 80" fill="none" xmlns="http://www.w3.org/2000/svg">
<path d="M16.786 56.1771L40.308 68.2631L63.8531 56.0643L74.8307 62.1138L40.308 80.0001L5.49725 62.1138L16.786 56.1771Z" fill="#F5B2B6"/>
<path d="M20.3138 27.9134L40.308 38.1869L60.4226 27.7654L74.8307 35.7053L40.308 53.5918L5.49725 35.7053L20.3138 27.9134Z" fill="#F5B2B6"/>
<path d="M66.3575 34.8777C67.1715 34.8777 67.8314 34.2805 67.8314 33.5439C67.8314 32.8073 67.1715 32.2101 66.3575 32.2101C65.5434 32.2101 64.8835 32.8073 64.8835 33.5439C64.8835 34.2805 65.5434 34.8777 66.3575 34.8777Z" fill="#03363D"/>
<path d="M13.2962 34.8777C14.1102 34.8777 14.7701 34.2805 14.7701 33.5439C14.7701 32.8073 14.1102 32.2101 13.2962 32.2101C12.4822 32.2101 11.8223 32.8073 11.8223 33.5439C11.8223 34.2805 12.4822 34.8777 13.2962 34.8777Z" fill="#03363D"/>
<path d="M17.718 38.8787C18.532 38.8787 19.1919 38.2816 19.1919 37.545C19.1919 36.8084 18.532 36.2113 17.718 36.2113C16.904 36.2113 16.2441 36.8084 16.2441 37.545C16.2441 38.2816 16.904 38.8787 17.718 38.8787Z" fill="#03363D"/>
<path d="M26.5615 38.8787C27.3755 38.8787 28.0354 38.2816 28.0354 37.545C28.0354 36.8084 27.3755 36.2113 26.5615 36.2113C25.7475 36.2113 25.0876 36.8084 25.0876 37.545C25.0876 38.2816 25.7475 38.8787 26.5615 38.8787Z" fill="#03363D"/>
<path d="M22.1398 42.8802C22.9538 42.8802 23.6137 42.2831 23.6137 41.5465C23.6137 40.8099 22.9538 40.2128 22.1398 40.2128C21.3258 40.2128 20.6659 40.8099 20.6659 41.5465C20.6659 42.2831 21.3258 42.8802 22.1398 42.8802Z" fill="#03363D"/>
<path d="M30.9834 42.8802C31.7974 42.8802 32.4573 42.2831 32.4573 41.5465C32.4573 40.8099 31.7974 40.2128 30.9834 40.2128C30.1694 40.2128 29.5095 40.8099 29.5095 41.5465C29.5095 42.2831 30.1694 42.8802 30.9834 42.8802Z" fill="#03363D"/>
<path d="M35.405 46.8813C36.219 46.8813 36.8789 46.2842 36.8789 45.5476C36.8789 44.811 36.219 44.2139 35.405 44.2139C34.591 44.2139 33.9311 44.811 33.9311 45.5476C33.9311 46.2842 34.591 46.8813 35.405 46.8813Z" fill="#03363D"/>
<path d="M44.2487 46.8813C45.0627 46.8813 45.7226 46.2842 45.7226 45.5476C45.7226 44.811 45.0627 44.2139 44.2487 44.2139C43.4347 44.2139 42.7748 44.811 42.7748 45.5476C42.7748 46.2842 43.4347 46.8813 44.2487 46.8813Z" fill="#03363D"/>
<path d="M48.6703 42.8802C49.4844 42.8802 50.1443 42.2831 50.1443 41.5465C50.1443 40.8099 49.4844 40.2128 48.6703 40.2128C47.8563 40.2128 47.1964 40.8099 47.1964 41.5465C47.1964 42.2831 47.8563 42.8802 48.6703 42.8802Z" fill="#03363D"/>
<path d="M39.8268 50.8829C40.6408 50.8829 41.3007 50.2857 41.3007 49.549C41.3007 48.8123 40.6408 48.2151 39.8268 48.2151C39.0128 48.2151 38.3529 48.8123 38.3529 49.549C38.3529 50.2857 39.0128 50.8829 39.8268 50.8829Z" fill="#03363D"/>
<path d="M53.0922 38.8787C53.9062 38.8787 54.5661 38.2816 54.5661 37.545C54.5661 36.8084 53.9062 36.2113 53.0922 36.2113C52.2782 36.2113 51.6183 36.8084 51.6183 37.545C51.6183 38.2816 52.2782 38.8787 53.0922 38.8787Z" fill="#03363D"/>
<path d="M61.9358 38.8787C62.7498 38.8787 63.4097 38.2816 63.4097 37.545C63.4097 36.8084 62.7498 36.2113 61.9358 36.2113C61.1218 36.2113 60.4619 36.8084 60.4619 37.545C60.4619 38.2816 61.1218 38.8787 61.9358 38.8787Z" fill="#03363D"/>
<path d="M57.514 42.8802C58.328 42.8802 58.9879 42.2831 58.9879 41.5465C58.9879 40.8099 58.328 40.2128 57.514 40.2128C56.6999 40.2128 56.04 40.8099 56.04 41.5465C56.04 42.2831 56.6999 42.8802 57.514 42.8802Z" fill="#03363D"/>
<path d="M67.1504 42.6401L80.9965 35.4818L66.7643 28.1688L80.9965 20.8105L40.499 0L0 20.8105L14.2322 28.1688L0 35.4818L14.2322 42.8401L0 50.1531L40.499 71.0903L80.9979 50.1531L66.7657 42.8401L66.8704 42.7854C66.9736 42.7508 67.0591 42.6947 67.1504 42.6401ZM40.499 3.0663L75.0418 20.8172L63.7855 26.6377L40.5004 38.6761L5.95612 20.8172L40.499 3.0663ZM16.4033 30.1201C16.6421 30.5643 17.1358 30.8764 17.718 30.8764C18.116 30.8764 18.4727 30.731 18.738 30.4989L22.072 32.2221C21.2908 32.2555 20.6659 32.829 20.6659 33.5439C20.6659 34.2801 21.3262 34.8776 22.1398 34.8776C22.9534 34.8776 23.6137 34.2801 23.6137 33.5439C23.6137 33.3131 23.5326 33.1077 23.4192 32.9183L38.6448 40.7901C38.4738 41.0075 38.3529 41.2596 38.3529 41.5464C38.3529 42.2826 39.0133 42.8801 39.8269 42.8801C40.6405 42.8801 41.3008 42.2826 41.3008 41.5464C41.3008 41.4784 41.2698 41.421 41.258 41.3557L56.0739 33.6959C56.1609 34.3575 56.7593 34.8763 57.5139 34.8763C58.3275 34.8763 58.9879 34.2788 58.9879 33.5425C58.9879 33.1091 58.7447 32.7409 58.3894 32.4982L61.635 30.8203C61.7352 30.8404 61.8296 30.875 61.9357 30.875C62.5901 30.875 63.1252 30.4829 63.3182 29.9494L63.7899 29.7053L75.0418 35.4871L72.119 36.9983C71.8876 36.5355 71.3776 36.21 70.7807 36.21C69.9671 36.21 69.3068 36.8076 69.3068 37.5438C69.3068 37.8319 69.4291 38.084 69.6001 38.3014L63.7855 41.3076L54.3701 46.1758C54.485 45.9864 54.5676 45.7784 54.5676 45.5463C54.5676 44.8101 53.9072 44.2125 53.0936 44.2125C52.28 44.2125 51.6197 44.8101 51.6197 45.5463C51.6197 46.2625 52.2476 46.836 53.0303 46.8681L49.6948 48.5926C49.4295 48.3605 49.0713 48.2138 48.6719 48.2138C47.8583 48.2138 47.1979 48.8113 47.1979 49.5476C47.1979 49.6543 47.2392 49.749 47.2657 49.849L40.5004 53.3461L32.3688 49.1421C32.1772 48.6073 31.6407 48.2138 30.9848 48.2138C30.8772 48.2138 30.7814 48.2498 30.6812 48.2698L27.4371 46.5933C27.7923 46.3492 28.037 45.9824 28.037 45.5476C28.037 44.8114 27.3766 44.2139 26.563 44.2139C25.8084 44.2139 25.2085 44.7354 25.123 45.3969L10.3042 37.7372C10.3145 37.6718 10.3469 37.6131 10.3469 37.5451C10.3469 36.8089 9.68662 36.2114 8.87301 36.2114C8.52075 36.2114 8.21122 36.3381 7.95771 36.5248L5.95465 35.4898L16.4033 30.1201ZM75.0403 50.1597L40.4975 68.0187L5.95612 50.1597L17.2066 44.3779L40.499 56.419L63.7899 44.3779L75.0403 50.1597Z" fill="#03363D"/>
</svg>
