<svg width="83" height="70" viewBox="0 0 83 70" fill="none" xmlns="http://www.w3.org/2000/svg">
<path d="M24.7135 54.0283L40.8164 61.7176L57.9449 53.9275L67.1966 58.0023L40.8164 70.0001L15.6906 58.0023L24.7135 54.0283Z" fill="#F8D348"/>
<path d="M81.1942 24.9426L70.881 20.1258L81.1942 15.309C81.7589 15.0444 82.1164 14.5197 82.1198 13.9438C82.1232 13.3678 81.7756 12.8386 81.2142 12.5665L55.5519 0.181487C55.054 -0.0574084 54.4625 -0.0604563 53.9613 0.172343L41.06 6.19799L28.1586 0.172488C27.6573 -0.0603111 27.0592 -0.0572633 26.568 0.181632L0.905585 12.5666C0.344221 12.8387 -0.00334393 13.3679 2.42606e-05 13.9439C0.00339245 14.52 0.360901 15.0445 0.925634 15.3091L11.2389 20.1259L0.925795 24.9426C0.361062 25.2071 0.00355284 25.7318 0.000184654 26.3077C-0.00318353 26.8836 0.344381 27.4129 0.905746 27.6851L13.6869 33.8534V47.9922C13.6869 48.5637 14.0345 49.0899 14.5925 49.3589L40.2548 61.7439C40.5055 61.8648 40.7828 61.9253 41.0602 61.9253C41.3375 61.9253 41.6148 61.8648 41.8655 61.7439L67.5278 49.3589C68.0858 49.0899 68.4334 48.5637 68.4334 47.9922V33.8534L81.2146 27.6851C81.7759 27.4129 82.1235 26.8838 82.1201 26.3077C82.1164 25.7318 81.7589 25.2071 81.1942 24.9426ZM54.7332 3.29598L76.7267 13.9106L67.1503 18.3834L44.7902 7.94021L54.7332 3.29598ZM5.39329 13.9107L27.3868 3.29598L37.3298 7.94021L14.9697 18.3834L5.39329 13.9107ZM5.39329 26.3411L14.9697 21.8683L37.3298 32.3115L27.3868 36.9557L5.39329 26.3411ZM39.3491 57.7962L17.1083 47.0637V35.5046L26.568 40.07C26.8187 40.1909 27.096 40.2515 27.3733 40.2515C27.644 40.2515 27.9112 40.194 28.1586 40.079L39.3491 34.8527V57.7962ZM41.06 30.5692L18.7002 20.1258L41.06 9.68244L63.4198 20.1259L41.06 30.5692ZM65.0117 47.0639L42.7709 57.7963V34.8527L53.9614 40.079C54.2088 40.194 54.476 40.2515 54.7467 40.2515C55.024 40.2515 55.3013 40.1909 55.552 40.07L65.0117 35.5046V47.0639ZM54.7332 36.9557L44.7902 32.3115L67.1503 21.8683L76.7267 26.3411L54.7332 36.9557Z" fill="#263442"/>
</svg>
