<svg width="125" height="42" viewBox="0 0 125 42" fill="none" xmlns="http://www.w3.org/2000/svg">
<path d="M3.82202 10.0341V10.415L19.7338 18.4864V2.00781L3.82202 10.0341Z" fill="#F6C042"/>
<path d="M40.0763 23.7384C40.0797 19.4474 40.0832 15.1564 40.0855 10.8654C40.0855 10.3941 40.0775 10.0178 39.5159 9.73416C33.2165 6.55005 26.9411 3.31847 20.645 0.125099C20.3614 -0.0184754 19.8918 -0.0485797 19.6162 0.0880475C13.2535 3.26289 6.90698 6.47247 0.548928 9.65774C0.0953559 9.88468 0.00234494 10.1904 0.0046415 10.6535C0.0195692 14.1028 0.0126795 17.5532 0.0126795 21.0024C0.0126795 24.4806 0.0253106 27.9577 4.83697e-05 31.4359C-0.00339648 31.965 0.176884 32.2348 0.630456 32.4641C6.6555 35.5104 12.684 38.5498 18.6803 41.6505C19.6127 42.1322 20.3603 42.1021 21.2548 41.6459C27.2994 38.5706 33.3577 35.5231 39.4206 32.4861C39.9144 32.2383 40.0924 31.9534 40.0855 31.393C40.0556 28.8434 40.0752 26.2904 40.0763 23.7384ZM19.7092 39.5108C19.7092 39.6462 19.6851 39.7817 19.6621 40.0144C19.2637 39.835 18.9123 39.6926 18.5735 39.5235C13.2076 36.8373 7.84512 34.1429 2.4746 31.4671C2.03251 31.2471 1.81663 31.0133 1.81778 30.4679C1.84075 24.4146 1.83156 18.3614 1.83386 12.3081C1.83386 12.0939 1.86831 11.8797 1.89701 11.545C2.31958 11.7222 2.67555 11.8472 3.00855 12.0163C8.35381 14.7407 13.6945 17.4744 19.0409 20.1942C19.4681 20.4119 19.7276 20.6226 19.7253 21.183C19.7035 27.2919 19.7115 33.4008 19.7092 39.5108ZM19.7299 18.4864C14.4179 15.7921 9.11742 13.1035 3.81694 10.415C3.81694 10.2401 3.81694 10.21 3.81694 10.034L19.7287 2.00777V18.4864H19.7299ZM38.3791 12.4933C38.3688 13.7832 38.3975 15.0742 38.3573 16.3617C38.3493 16.6026 38.1506 16.9488 37.9428 17.0553C32.6756 19.76 27.397 22.4382 22.1183 25.1186C22.1183 25.1186 22.0586 25.1337 21.9656 25.1394C21.8117 25.1487 21.6808 25.0248 21.6808 24.8697C21.6796 23.3772 21.667 21.9322 21.6992 20.4883C21.7038 20.2764 21.9082 19.9731 22.1011 19.8747C27.2431 17.2313 32.3966 14.6099 37.5478 11.9827C38.1047 11.7002 38.3849 11.8287 38.3791 12.4933ZM21.5315 2.69902C22.0563 2.92364 22.3089 3.01627 22.5478 3.13669C26.9055 5.35282 31.2632 7.56896 35.6129 9.80131C35.7565 9.87542 35.877 9.99699 35.993 10.1255C36.1262 10.2714 36.1216 10.4983 35.9827 10.6396C35.8793 10.745 35.7737 10.8434 35.6497 10.9105C34.6243 11.4675 33.6069 12.0533 32.5344 12.5038C32.0808 12.6948 31.4056 12.7712 30.9899 12.5686C27.947 11.0784 24.9442 9.50606 21.9357 7.94642C21.7669 7.85843 21.551 7.64307 21.5487 7.48444C21.5189 5.95375 21.5315 4.42307 21.5315 2.69902ZM21.6992 27.7215C21.7038 27.5096 21.9082 27.2062 22.1011 27.1078C27.2431 24.4644 32.3966 21.843 37.5478 19.2159C38.1036 18.9322 38.3837 19.0607 38.378 19.7253C38.3677 21.0152 38.3964 22.3062 38.3562 23.5937C38.3481 23.8345 38.1495 24.1807 37.9416 24.2873C32.6745 26.992 27.3958 29.6701 22.1171 32.3506C22.0724 32.3737 22.0104 32.3633 21.6796 32.3934C21.6808 30.7979 21.6647 29.2591 21.6992 27.7215ZM38.3631 30.7585C38.355 30.9994 38.1564 31.3456 37.9485 31.4521C32.6814 34.1568 27.4027 36.835 22.124 39.5154C22.0793 39.5386 22.0172 39.5281 21.6865 39.5582C21.6865 37.9627 21.6705 36.4228 21.7049 34.8851C21.7095 34.6732 21.9139 34.3699 22.1068 34.2715C27.2488 31.6281 32.4023 29.0067 37.5535 26.3795C38.1093 26.0958 38.3895 26.2244 38.3837 26.889C38.3745 28.1788 38.4033 29.4698 38.3631 30.7585Z" fill="#B41F3F"/>
<path d="M53.508 22.1169V26.9252H49.9934V14.4392H56.2015C58.6618 14.4392 60.6363 15.5698 60.6363 18.2859C60.6363 22.4886 56.4864 22.1169 53.508 22.1169ZM55.7169 17.2241H53.508V19.4684H55.6499C56.4026 19.4684 57.1398 19.1643 57.1398 18.2872C57.1398 17.41 56.4528 17.2241 55.7169 17.2241Z" fill="#231F20"/>
<path d="M70.4093 26.926H67.9155L67.4632 26.1839C66.5932 26.6232 65.6228 27.1287 64.6355 27.1287C61.9755 27.1287 60.8207 24.8168 60.8207 22.4217C60.8207 20.0254 61.9587 17.7317 64.6188 17.7317C65.5222 17.7317 66.3587 18.1203 67.0623 18.6596V17.9175H70.4093V26.926ZM67.0636 20.9364C66.6448 20.6661 66.1267 20.3464 65.624 20.3464C64.486 20.3464 64.151 21.5445 64.151 22.4893C64.151 23.4848 64.486 24.6492 65.673 24.6492C66.1589 24.6492 66.6435 24.4126 67.0623 24.2099V20.9364H67.0636Z" fill="#231F20"/>
<path d="M78.5269 21.3408C78.2923 20.6325 77.724 20.2947 77.0035 20.2947C75.7483 20.2947 75.3642 21.4084 75.3642 22.4883C75.3642 23.5513 75.7663 24.7326 77.0035 24.7326C77.7897 24.7326 78.3426 24.2765 78.5437 23.5175L81.4383 24.4623C80.7526 26.4194 78.9277 27.1445 77.0035 27.1445C74.0419 27.1445 71.9334 25.5591 71.9334 22.4376C71.9334 19.2992 74.0419 17.7476 77.0035 17.7476C78.9445 17.7476 80.7849 18.4727 81.4718 20.4636L78.5269 21.3408Z" fill="#231F20"/>
<path d="M92.3781 26.9264H88.8636L86.9562 23.7036L86.1365 24.6314V26.9264H82.7895V14.4404H86.1365V20.599L88.5465 17.9167H92.1448L89.0156 21.4099L92.3781 26.9264Z" fill="#231F20"/>
<path d="M97.0981 26.9254H93.7511V14.4563H97.0981V26.9254Z" fill="#231F20"/>
<path d="M109.111 17.9155L104.192 30.9577H100.694L102.501 26.1156L98.4183 17.9155H101.95L103.958 22.8252L105.614 17.9155H109.111Z" fill="#231F20"/>
<path d="M116.61 16.5314C116.46 16.5314 116.292 16.5145 116.141 16.5145C115.255 16.5145 114.97 17.1214 114.953 17.9154H116.426V20.1766H114.953V26.9251H111.607V20.1766H110.218V17.9154H111.607C111.607 15.7556 112.058 14.2715 114.519 14.2715C115.305 14.2715 116.108 14.3728 116.878 14.5418L116.61 16.5314Z" fill="#231F20"/>
<path d="M124.56 20.1766H122.334V24.0401C122.334 24.7821 122.919 24.9173 123.522 24.9173C123.79 24.9173 124.058 24.9004 124.325 24.8835V26.773C123.505 26.9082 122.669 26.9251 121.831 26.9251C120.643 26.9251 119.004 26.5703 119.004 25.0693C119.004 23.4332 118.987 21.8127 118.987 20.1766H117.597V17.9323H118.987V15.1655H122.334V17.9323H124.56V20.1766Z" fill="#231F20"/>
</svg>
