<svg width="98" height="48" viewBox="0 0 98 48" fill="none" xmlns="http://www.w3.org/2000/svg">
<g clip-path="url(#clip0_1916_373)">
<rect width="98" height="48" fill="white"/>
<path d="M25.375 36.9854H21.6208V33.1287H22.4946V36.3149H25.375V36.9854Z" fill="black"/>
<path d="M28.7584 33.1287H27.8846V36.9824H28.7584V33.1287Z" fill="black"/>
<path d="M34.2451 36.9854H33.1845L30.9821 33.1287H31.9733L33.7298 36.2507H33.754L35.4774 33.1287H36.4505L34.2451 36.9854Z" fill="black"/>
<path d="M42.8379 36.9854H38.677V33.1287H42.7897V33.7758H39.5447V34.7057H42.633V35.3354H39.5447V36.3207H42.8379V36.9854Z" fill="black"/>
<path d="M55.4832 36.9854H54.4256L53.2476 34.0819H53.2355L52.0514 36.9854H50.9819L49.5266 33.1287H50.4576L51.5844 36.2303H51.5935L52.8318 33.1287H53.7055L54.9469 36.2362H54.9559L56.0466 33.1287H56.9444L55.4832 36.9854Z" fill="black"/>
<path d="M63.573 36.9854H59.4152V33.1287H63.5278V33.7758H60.2859V34.7057H63.3711V35.3354H60.2859V36.3207H63.573V36.9854Z" fill="black"/>
<path d="M69.9122 36.9854H66.1581V33.1287H67.0318V36.3149H69.9122V36.9854Z" fill="black"/>
<path d="M76.0797 36.9854H72.3256V33.1287H73.2023V36.3149H76.0797V36.9854Z" fill="black"/>
<path d="M43.9104 29.8023V16.8971L56.2242 29.8023H64.8141V12.1396H57.7247V25.5025L44.7148 12.1396H36.7004V29.8023H43.9104Z" fill="black"/>
<path d="M97.5589 29.7907L97.5649 26.4617L79.7615 26.4675C76.9866 26.415 77.2849 24.7855 77.2849 23.5699L77.2577 19.0602C77.2577 17.8446 76.9685 15.8361 79.7344 15.3755H97.6192V12.1543H75.8477C71.0119 12.1543 68.3666 16.4512 68.3666 21.2116C68.3666 25.8145 70.2105 29.8053 75.6187 29.8053L97.5589 29.7907Z" fill="black"/>
<path d="M8.29159 29.8521C2.10604 29.8521 0 25.8176 0 21.1593C0 16.3493 3.028 12 8.55673 12H31.9943V15.262H11.9945C8.83694 15.7284 9.16534 17.7603 9.16534 18.9846L9.19849 23.5468C9.19849 24.774 8.90322 26.9808 12.0306 26.8059L23.3472 26.8233C24.2692 26.4385 25.0586 25.3541 25.0586 24.4942V22.7859H16.5018V19.6055H31.91V29.8667L8.29159 29.8521Z" fill="black"/>
<path d="M77.4596 36.4983V36.3409H77.5681L77.6856 36.4167L77.5651 36.4983H77.4596ZM77.3692 36.7986H77.4596V36.5712H77.538L77.6766 36.7986H77.782L77.6314 36.5683L77.779 36.4225L77.5711 36.268H77.3692V36.7986ZM77.1644 36.5333L77.553 36.1543L77.9417 36.5333L77.553 36.9094L77.1644 36.5333ZM77.074 36.5333C77.074 36.7898 77.2909 36.9997 77.553 36.9997C77.8212 36.9997 78.0351 36.7898 78.0351 36.5333C78.0351 36.2739 77.8212 36.0669 77.553 36.0669C77.2909 36.0669 77.074 36.2768 77.074 36.5333Z" fill="black"/>
</g>
<defs>
<clipPath id="clip0_1916_373">
<rect width="98" height="48" fill="white"/>
</clipPath>
</defs>
</svg>
