<svg width="122" height="48" viewBox="0 0 122 48" fill="none" xmlns="http://www.w3.org/2000/svg">
<rect width="122" height="48" fill="white"/>
<path d="M21.1426 15.4426H0V22.5683H21.1426V15.4426Z" fill="black"/>
<path d="M21.1426 24.1499H0V31.274H21.1426V24.1499Z" fill="black"/>
<path d="M28.979 15.9946V30.7132H31.9414V24.2738H38.1057V21.4338H31.9414V18.8361H38.2093V15.9946H28.979Z" fill="black"/>
<path d="M46.8161 28.5998V23.8077C46.8161 22.2322 46.0075 20.2253 42.5873 20.2253C41.239 20.2253 40.1459 20.5364 39.4068 20.8396V23.4435C40.2495 22.9074 41.1865 22.6261 42.2116 22.6261C43.1331 22.6261 44.0516 22.9465 44.0516 24.0406V24.1109C43.597 23.9452 43.0202 23.8421 42.4234 23.8421C40.0918 23.8421 38.3755 25.0737 38.3755 27.4948C38.3755 29.8705 40.3005 30.777 41.8467 30.777C42.8084 30.777 43.6403 30.4676 44.1783 30.0253C44.2325 30.33 44.3082 30.5832 44.4025 30.7114H47.447C47.0775 30.4113 46.8161 29.8142 46.8161 28.5998ZM41.1509 27.1837C41.1509 26.3663 41.8436 25.8193 42.8301 25.8193C43.3326 25.8193 43.7346 25.9287 44.05 26.1006V27.8699C43.7748 28.1122 43.2893 28.4169 42.5842 28.4169C41.6673 28.4169 41.1509 27.8855 41.1509 27.1837Z" fill="black"/>
<path d="M106.951 28.5998V23.8077C106.951 22.2322 106.146 20.2253 102.721 20.2253C101.371 20.2253 100.279 20.5364 99.5355 20.8396V23.4435C100.387 22.9074 101.323 22.6261 102.348 22.6261C103.263 22.6261 104.185 22.9465 104.185 24.0406V24.1109C103.732 23.9452 103.152 23.8421 102.555 23.8421C100.224 23.8421 98.5073 25.0737 98.5073 27.4948C98.5073 29.8705 100.434 30.777 101.975 30.777C102.94 30.777 103.769 30.4676 104.304 30.0253C104.364 30.33 104.442 30.5832 104.53 30.7114H107.579C107.215 30.4113 106.951 29.8142 106.951 28.5998ZM101.289 27.1837C101.289 26.3663 101.977 25.8193 102.963 25.8193C103.471 25.8193 103.871 25.9287 104.186 26.1006V27.8699C103.904 28.1122 103.43 28.4169 102.718 28.4169C101.807 28.4169 101.289 27.8855 101.289 27.1837Z" fill="black"/>
<path d="M59.1207 20.3481C57.9192 20.3481 57.0394 20.6357 56.2121 21.5298C55.6307 20.7905 54.7138 20.3481 53.6066 20.3481C52.6958 20.3481 51.8454 20.6139 51.0738 21.2984V20.4513H48.4868V30.7264H51.2702V23.8023C51.6072 23.3756 52.0804 23.0334 52.736 23.0334C53.5772 23.0334 54.0535 23.6085 54.0535 24.6573V30.7264H56.8909V23.7242C57.2079 23.3147 57.6749 23.0334 58.3336 23.0334C59.2367 23.0334 59.6449 23.6742 59.6449 24.6573V30.7264H62.4793V23.6085C62.4808 21.6736 61.2623 20.3481 59.1207 20.3481Z" fill="black"/>
<path d="M71.7849 15.9946H69.0073V30.7132H71.7849V15.9946Z" fill="black"/>
<path d="M90.5489 20.5664L86.8658 15.9946H83.8245V30.7132H86.8658V20.5664L90.5489 25.4835L94.2242 20.5664V30.7132H97.2733V15.9946H94.2242L90.5489 20.5664Z" fill="black"/>
<path d="M67.0849 20.4402H64.3018V30.7152H67.0849V20.4402Z" fill="black"/>
<path d="M65.7051 15.749C64.7066 15.749 63.8997 16.5665 63.8997 17.5793C63.8997 18.5843 64.7066 19.4017 65.7051 19.4017C66.6991 19.4017 67.5091 18.5843 67.5091 17.5793C67.5091 16.5665 66.6991 15.749 65.7051 15.749Z" fill="black"/>
<path d="M111.148 21.5211V20.4427H108.485V30.7177H111.27V24.2673C111.672 23.7421 112.324 23.2685 113.267 23.2685C113.996 23.2685 114.526 23.5593 114.829 23.7812V20.6865C114.487 20.4427 113.939 20.3176 113.481 20.3176C112.689 20.3176 111.82 20.6146 111.148 21.5211Z" fill="black"/>
<path d="M120.809 28.1039C119.927 28.1039 119.594 27.4131 119.594 26.6503V23.1461H121.966V20.4547H119.594V16.5769L116.853 17.7538V20.4547H115.35V23.1461H116.853V27.0661C116.853 29.1996 117.695 30.847 120.177 30.847C120.915 30.847 121.57 30.7297 122 30.5531V27.7116C121.797 27.9445 121.412 28.1039 120.809 28.1039Z" fill="black"/>
<path d="M75.1372 33.3786H78.2636L82.9548 20.4402H79.9057L77.976 25.9903L75.8763 20.4402H72.7004L76.5319 29.7587L75.1372 33.3786Z" fill="black"/>
</svg>
