<svg width="122" height="48" viewBox="0 0 122 48" fill="none" xmlns="http://www.w3.org/2000/svg">
<g clip-path="url(#clip0_1915_34)">
<rect width="122" height="48" fill="white"/>
<path d="M37.9997 42.6006H42.8368L40.4263 30.0911H37.8989L30.6472 42.6006H33.0618L34.134 40.631H37.524L37.9997 42.6006ZM35.2022 38.6613L36.5727 36.2346L37.0282 38.6613H35.2022Z" fill="black"/>
<path d="M54.8896 28.3031H57.9491L56.4214 20.384H54.8292L50.2258 28.3031H51.7576L52.4348 27.0534H54.5793L54.8896 28.3031ZM53.1201 25.8117L53.9907 24.2748L54.285 25.8117H53.1201Z" fill="black"/>
<path d="M76.3102 28.3031H79.3777L77.8379 20.384H76.2417L71.6504 28.3031H73.1741L73.8634 27.0534H76.0079L76.3102 28.3031ZM74.5406 25.8117L75.4113 24.2748L75.7015 25.8117H74.5406Z" fill="black"/>
<path d="M117.825 28.3031H120.889L119.361 20.384H117.769L113.173 28.3031H114.701L115.382 27.0534H117.523L117.825 28.3031ZM116.051 25.8117L116.918 24.2748L117.212 25.8117H116.051Z" fill="black"/>
<path d="M43.9373 42.6007L45.3682 29.9739H49.3105L48.0005 42.6007H43.9373Z" fill="black"/>
<path d="M105.454 28.3036L106.349 20.4209H108.816L107.994 28.3036H105.454Z" fill="black"/>
<path d="M60.9602 34.1474C61.073 29.7511 55.1354 29.9776 55.1354 29.9776H50.528L49.093 42.6004H53.382L53.9261 37.9614L56.0101 42.7177H60.5248L58.1062 37.0433C60.5288 36.4649 60.9602 34.1474 60.9602 34.1474ZM56.7881 33.7996C56.7881 33.7996 56.0142 36.2344 54.1559 35.7693L54.5872 31.5994C54.5872 31.6034 57.2235 30.9037 56.7881 33.7996Z" fill="black"/>
<path d="M99.5203 34.1474C99.6292 29.7511 93.6916 29.9776 93.6916 29.9776H89.0761L87.6492 42.6004H91.926L92.4823 37.9614L94.5623 42.7177H99.081L96.6584 37.0433C99.085 36.4649 99.5203 34.1474 99.5203 34.1474ZM95.3443 33.7996C95.3443 33.7996 94.5663 36.2344 92.7121 35.7693L93.1434 31.5994C93.1434 31.6034 95.7877 30.9037 95.3443 33.7996Z" fill="black"/>
<path d="M73.706 33.8C73.706 29.5209 67.2202 30.0912 67.2202 30.0912H62.8265L61.6172 42.6007H65.8981L66.4543 37.2742C74.1454 37.3874 73.706 33.8 73.706 33.8ZM69.53 33.5694C69.53 33.5694 69.53 36.0002 66.676 36.0002L67.0106 31.7211C67.0106 31.7211 69.6388 31.3692 69.53 33.5694Z" fill="black"/>
<path d="M81.6108 29.8644C81.6108 29.8644 74.5808 29.8644 74.484 36.5823C74.484 36.5823 74.0366 42.6005 80.1878 42.9483C80.1878 42.9483 86.1254 43.5226 87.2219 36.6955C87.2178 36.6955 88.8705 29.7512 81.6108 29.8644ZM82.9289 36.8128C82.2718 42.1394 80.5143 41.4437 80.5143 41.4437C78.0958 41.2092 78.652 35.8866 78.652 35.8866C79.422 30.5601 81.6108 31.4862 81.6108 31.4862C84.1342 31.8341 82.9289 36.8128 82.9289 36.8128Z" fill="black"/>
<path d="M111.053 29.9775H107.977H104.015H100.617L100.399 31.2556H103.882L102.588 42.6004H106.655L107.84 31.2556H110.835L111.053 29.9775Z" fill="black"/>
<path d="M119.51 30.4468L118.845 30.3335C118.845 30.3335 114.568 29.1768 113.032 30.7906C113.032 30.7906 110.392 32.1859 113.359 36.2385L115.995 39.1262C115.995 39.1262 117.974 41.4477 115.443 41.4477C115.443 41.4477 112.581 41.6742 112.367 38.8957H111.597V41.3305H112.149C112.149 41.3305 113.572 43.0655 116.321 43.0655C116.321 43.0655 120.389 43.0655 119.945 38.6651C119.945 38.6651 119.72 36.6955 116.321 34.4953C116.321 34.4953 113.359 31.8421 116.761 31.2638C116.761 31.2638 118.958 31.0251 118.958 33.1121H119.51V30.4468Z" fill="black"/>
<path d="M99.7218 20.8535L99.3389 20.7847C99.3389 20.7847 96.8034 20.1053 95.8964 21.0598C95.8964 21.0598 94.3445 21.8808 96.098 24.2792L97.6499 25.9859C97.6499 25.9859 98.8189 27.353 97.3234 27.353C97.3234 27.353 95.6344 27.4986 95.5095 25.8525H95.054V27.2842H95.3684C95.3684 27.2842 96.227 28.3156 97.8434 28.3156C97.8434 28.3156 100.242 28.3156 99.9878 25.719C99.9878 25.719 99.8589 24.5542 97.8434 23.2559C97.8434 23.2559 96.098 21.6826 98.1014 21.3388C98.1014 21.3388 99.3993 21.2054 99.3993 22.4349H99.7218V20.8535Z" fill="black"/>
<path d="M67.5306 27.248H65.2571L65.9746 20.4209H63.5117L62.6128 28.3036H65.1483V28.2955H67.4137L67.5306 27.248Z" fill="black"/>
<path d="M38.2659 28.2833L39.3663 20.4087H41.5551L42.6556 24.1984L44.4856 20.4896H46.9002L46.094 28.3601H43.5303L43.752 25.351L42.1396 28.2833H41.1158L39.9468 25.2702L39.5034 28.2833H38.2659Z" fill="black"/>
<path d="M83.8521 20.4206L85.4765 24.7482L85.0492 28.2305H87.8104L88.0886 24.8412L91.2609 20.4206H89.8582L87.6653 23.8139L86.323 20.3721L83.8521 20.4206Z" fill="black"/>
<path d="M31.7237 27.838H22.1139L20.7998 24.5337H33.8561L31.7237 27.838Z" fill="black"/>
<path d="M29.4543 28.708H23.678V34.3298H29.4543V28.708Z" fill="black"/>
<path d="M29.4543 43.6482H23.678V48.0001H29.4543V43.6482Z" fill="black"/>
<path d="M30.8896 9.43575H36.6862V8.43677H31.2887" fill="black"/>
<path d="M29.6798 8.43677H17.7764V9.43575H29.2727" fill="black"/>
<path d="M25.5119 13.6702H21.6059L19.5945 10.3618H28.0635" fill="black"/>
<path d="M30.0791 10.3618H34.8678L32.7314 13.6702H28.4707" fill="black"/>
<path d="M23.8955 20.8171H38.1248L35.9924 23.8707H22.5532" fill="black"/>
<path d="M17.6638 23.1346L16.1401 20.8171H19.7277" fill="black"/>
<path d="M23.4964 16.1941H18.7197L19.7194 14.6006H24.7057" fill="black"/>
<path d="M27.5315 14.6006H34.1746L35.3597 16.1941H26.7253" fill="black"/>
<path d="M26.4513 16.9868H35.8071L37.5687 19.7654H24.4358" fill="black"/>
<path d="M20.7998 19.7654H16.3899L18.1514 16.9868H22.9523" fill="black"/>
<path d="M36.7985 0L35.69 0.691605L34.5049 2.44286L34.4847 2.43073L29.6516 2.8918L32.6184 3.70069L33.0175 4.62688L32.0742 6.01414L30.7521 6.25276L32.8401 7.63597V6.35792L33.7511 5.09199H34.4847L36.1374 8.10108L35.3635 3.24367L35.1861 3.06976L36.472 1.26997L36.7985 0Z" fill="black"/>
<path d="M32.9128 36.3479L33.6101 35.0779H16.6882L32.6185 7.17103L31.1956 6.25293L6.47372 35.1912H4.50661L0 42.7179H29.2124L29.7928 41.7877H19.526L20.1709 40.9788H30.2282L30.6353 40.2831H20.7111L21.3318 39.4823H31.1069L31.4939 38.722H21.9526L22.4686 37.9778H31.9615L32.5178 37.0435H23.2385L23.8431 36.3519L32.9128 36.3479ZM15.7046 39.5875H5.82071L31.8446 6.82724L11.6334 38.3216H16.2488L15.7046 39.5875Z" fill="black"/>
</g>
<defs>
<clipPath id="clip0_1915_34">
<rect width="122" height="48" fill="white"/>
</clipPath>
</defs>
</svg>
