<svg width="122" height="48" viewBox="0 0 122 48" fill="none" xmlns="http://www.w3.org/2000/svg">
<g clip-path="url(#clip0_1915_195)">
<rect width="122" height="48" fill="white"/>
<path d="M121.968 19.6223C121.947 19.6194 121.278 19.5754 121.278 19.5754C118.56 19.3851 118.614 16.966 118.614 16.966C118.662 14.0022 116.925 9.2753 110.134 9H98.376L98.2149 9.57988H108.073C109.075 9.60038 109.77 10.3179 109.442 11.4835L107.673 17.786C107.002 19.6721 105.232 19.5754 105.232 19.5754C103.424 19.4231 103.932 17.7392 103.932 17.7392L104.74 14.8486C104.994 13.8704 104.284 13.4018 103.663 13.3842L97.1408 13.3901L96.9797 13.9612H99.7723C100.799 13.9846 101.019 14.7402 100.837 15.4167C100.837 15.4167 100.488 16.6146 100.077 18.1199C99.6769 19.5754 98.3014 19.6194 98.1045 19.6194H95.3864L95.1984 20.3018H97.7703C98.0657 20.3018 99.4591 20.3545 99.0443 21.81C98.6087 23.3212 98.2865 24.5132 98.2865 24.5132C98.0836 25.1926 97.4481 25.9394 96.4008 25.9658H93.5962L93.4411 26.5457L99.9722 26.5515C100.599 26.5281 101.571 26.0654 101.873 25.0755L102.684 22.1937C102.684 22.1937 103.117 20.5068 105.012 20.3545C105.012 20.3545 106.838 20.2578 106.441 22.1439L104.68 28.4435C104.352 29.612 103.248 30.3354 102.243 30.3471H92.37L92.2029 30.9328H103.976C110.922 30.6575 115.305 25.9336 116.928 22.9639C116.928 22.9639 118.232 20.5419 121.063 20.3545L121.762 20.3105C121.762 20.3105 121.809 20.3105 121.824 20.2666C121.866 20.1436 121.988 19.6897 121.994 19.6633C122.006 19.6311 121.991 19.6282 121.968 19.6223Z" fill="black"/>
<path d="M16.58 20.5741C16.216 20.1172 15.4999 19.5754 14.1812 19.5754H3.15966L0 30.9328H3.097L5.56446 22.0619H8.32729L5.85984 30.9328H8.95684L11.4183 22.0619H12.6058C13.0981 22.0619 13.4442 22.1849 13.6411 22.4309C13.9276 22.7853 13.838 23.3124 13.7605 23.5965L11.7197 30.9299H14.8167L17.0096 23.0488C17.2662 22.1351 17.1081 21.2301 16.58 20.5741Z" fill="black"/>
<path d="M29.4096 20.6588C28.8636 19.9823 27.8969 19.5781 26.8198 19.5781H20.1275L19.4681 21.9445H25.322C25.9307 21.9445 26.3514 22.0851 26.5751 22.3633C26.8019 22.6415 26.8347 23.0632 26.6825 23.6168L26.5572 24.0619H21.6581C19.4502 24.0619 17.7108 25.3681 17.126 27.4768C16.8336 28.534 16.938 29.4214 17.4333 30.0335C17.9077 30.6192 18.7252 30.9326 19.7934 30.9326H27.7417L29.7706 23.6373C30.1167 22.3897 29.9973 21.3851 29.4096 20.6588ZM25.3041 28.5662H21.5388C21.1778 28.5662 20.6765 28.5369 20.4587 28.2675C20.3274 28.1006 20.3065 27.8487 20.396 27.5178C20.6646 26.5572 21.4463 26.4283 22.1803 26.4283H25.8949L25.3041 28.5662Z" fill="black"/>
<path d="M47.2846 20.6561C46.7416 19.9825 45.7719 19.5754 44.6948 19.5754H37.9996L37.3432 21.9418H43.1971C43.8057 21.9418 44.2264 22.0824 44.4502 22.3606C44.6769 22.6388 44.7097 23.0606 44.5576 23.6141L44.4353 24.0592H39.5391C37.3253 24.0592 35.5888 25.3654 35.004 27.4741C34.7086 28.5313 34.8161 29.4187 35.3113 30.0308C35.7857 30.6165 36.6003 30.9299 37.6714 30.9299H45.6198L47.6456 23.6346C47.9947 22.3899 47.8754 21.3854 47.2846 20.6561ZM43.1791 28.5665H39.4138C39.0558 28.5665 38.5545 28.5372 38.3337 28.2677C38.1995 28.1008 38.1816 27.8489 38.2711 27.518C38.5396 26.5574 39.3243 26.4285 40.0553 26.4285H43.7729L43.1791 28.5665Z" fill="black"/>
<path d="M58.2164 19.5754L55.749 28.4464H52.7057C52.2193 28.4464 51.8673 28.3234 51.6733 28.0803C51.3869 27.7259 51.4794 27.1841 51.56 26.8942L53.5948 19.5784H50.4978L48.3854 27.1753C48.0572 28.3497 48.1586 29.2723 48.6808 29.9166C49.3551 30.7571 50.5754 30.9358 51.4824 30.9358H55.0597L54.7405 32.0545C54.5495 32.7398 53.735 33.4691 52.6012 33.4691H46.9174L46.2581 35.8354H52.8728C54.7226 35.8354 57.2229 34.2686 57.8494 32.0164L61.3134 19.5813H58.2164V19.5754Z" fill="black"/>
<path d="M72.0904 24.9613C71.6131 24.3726 70.7985 24.0622 69.7304 24.0622H66.5409C66.162 24.0622 65.6398 24.0329 65.4161 23.7517C65.2848 23.5907 65.2639 23.3476 65.3504 23.0342C65.616 22.0707 66.4216 21.9418 67.1734 21.9418H73.3316L73.988 19.5754H66.6155C64.4046 19.5754 62.6682 20.8846 62.0804 22.9903C61.788 24.0387 61.8984 24.9173 62.3877 25.5294C62.8621 26.1152 63.6796 26.4285 64.7567 26.4285H67.9462C68.3191 26.4285 68.8443 26.4578 69.068 26.736C69.1993 26.9001 69.2232 27.149 69.1307 27.477C68.8622 28.4376 68.0596 28.5665 67.3077 28.5665H60.5319L59.8755 30.9328H67.8656C70.0765 30.9328 71.8159 29.6237 72.4007 27.518C72.6931 26.4637 72.5857 25.5792 72.0904 24.9613Z" fill="black"/>
<path d="M76.0434 19.5754L72.8838 30.9328H75.9808L79.1405 19.5754H76.0434Z" fill="black"/>
<path d="M90.5292 20.6561C89.9892 19.9825 89.0195 19.5754 87.9364 19.5754H81.2442L80.5878 21.9418H86.4387C87.0473 21.9418 87.468 22.0824 87.6948 22.3606C87.9185 22.6388 87.9543 23.0606 87.7992 23.6141L87.6769 24.0592H82.7778C80.5669 24.0592 78.8304 25.3654 78.2456 27.4741C77.9502 28.5313 78.0577 29.4187 78.55 30.0308C79.0244 30.6165 79.8419 30.9299 80.913 30.9299H88.8584L90.8872 23.6346C91.2393 22.3899 91.117 21.3854 90.5292 20.6561ZM86.4208 28.5665H82.6584C82.3004 28.5665 81.7961 28.5372 81.5783 28.2677C81.4441 28.1008 81.4232 27.8489 81.5157 27.518C81.7812 26.5574 82.5659 26.4285 83.2969 26.4285H87.0175L86.4208 28.5665Z" fill="black"/>
<path d="M33.5449 16.4973L29.5349 30.9328H32.6319L36.6449 16.4973H33.5449Z" fill="black"/>
<path d="M63.5392 33.8382C63.2677 33.4897 62.7843 33.4604 62.6411 33.4604H59.2905L59.0906 34.1868H62.1548C62.4054 34.1868 62.6053 34.257 62.7127 34.3976C62.7992 34.5089 62.7992 34.6934 62.7634 34.8633C62.7306 35.0185 62.5904 35.4871 62.5904 35.4871H60.2602C59.1652 35.4871 58.3984 36.0318 58.1388 37.0598C58.0195 37.5284 58.1328 37.8945 58.3327 38.1551C58.5446 38.4275 58.9533 38.5739 59.5113 38.5739H62.6441L63.6436 34.9482C63.7779 34.4708 63.742 34.096 63.5392 33.8382ZM61.928 37.8593H59.8872C59.5083 37.8593 59.2636 37.7832 59.1413 37.625C59.0369 37.4903 58.9951 37.2999 59.0697 37.0393C59.2248 36.4711 59.6485 36.2017 60.3198 36.2017H62.3875L61.928 37.8593Z" fill="black"/>
<path d="M64.4282 38.5739L65.8365 33.4634H64.9384L63.5242 38.5739H64.4282Z" fill="black"/>
<path d="M69.4884 38.5742L71.2935 32.0637H70.3895L68.5874 38.5742H69.4884Z" fill="black"/>
<path d="M71.2697 38.5739L72.6839 33.4634H71.7799L70.3716 38.5739H71.2697Z" fill="black"/>
<path d="M76.2764 33.4634H73.5673L72.156 38.5739H73.0571L74.2684 34.1868H75.9452C76.3122 34.1868 76.5539 34.26 76.6911 34.4533C76.8493 34.6788 76.7836 34.9804 76.6732 35.3904L75.7931 38.571H76.706L77.6519 35.1474C77.807 34.5968 77.7473 34.175 77.5265 33.8968C77.2998 33.6098 76.8791 33.4634 76.2764 33.4634Z" fill="black"/>
<path d="M79.2301 35.5662C79.4598 34.9951 80.0685 34.1868 81.1396 34.1868H82.9566L83.1565 33.4604H81.0202C79.4837 33.4604 78.4394 34.752 78.0844 36.0318C77.8576 36.8489 77.9292 37.5782 78.2813 38.0292C78.5617 38.3894 79.0003 38.571 79.5881 38.571H81.7453L81.9422 37.8564C81.9422 37.8564 80.51 37.8564 80.0923 37.8564C79.6388 37.8564 79.3106 37.7627 79.1197 37.5401C78.8959 37.2853 78.878 36.8314 79.0063 36.3598L79.0182 36.3247H82.2495L82.4434 35.6189H79.2122L79.2301 35.5662Z" fill="black"/>
<path d="M88.1839 34.2163L88.3867 33.4929H85.5344C84.0664 33.4929 83.607 34.4155 83.4488 34.9719C83.3384 35.3673 83.413 35.7158 83.5771 35.9237C83.783 36.1902 84.1142 36.3279 84.6721 36.3279H86.0774C86.9337 36.3279 86.7905 36.9546 86.7249 37.1567C86.513 37.801 85.8149 37.8596 85.0868 37.8596H82.6373L82.4434 38.5742H85.8865C86.7666 38.5742 87.4976 38.0324 87.7095 37.1128C87.8109 36.6735 87.7214 36.2957 87.5066 36.0409C87.3097 35.8095 86.9815 35.625 86.3788 35.625H85.1734C85.054 35.625 84.6542 35.6367 84.517 35.4288C84.4245 35.2941 84.4245 35.1447 84.4871 34.9309C84.6721 34.3042 85.2718 34.2192 85.5374 34.2192H88.1839V34.2163Z" fill="black"/>
<path d="M68.2027 33.4604C66.6393 33.4604 66.335 34.8867 66.3081 34.9892C66.2783 35.0946 65.3086 38.6032 65.3086 38.6032H66.2097C66.2097 38.6032 67.1405 35.2323 67.1763 35.1239C67.2301 34.9599 67.4777 34.1955 68.3489 34.1955C68.9546 34.1955 69.1038 34.1955 69.1038 34.1955L69.3096 33.4604H68.2027Z" fill="black"/>
<path d="M121.968 19.6223C121.947 19.6194 121.278 19.5754 121.278 19.5754C118.56 19.3851 118.614 16.966 118.614 16.966C118.662 14.0022 116.925 9.2753 110.134 9H98.376L98.2149 9.57988H108.073C109.075 9.60038 109.77 10.3179 109.442 11.4835L107.673 17.786C107.002 19.6721 105.232 19.5754 105.232 19.5754C103.424 19.4231 103.932 17.7392 103.932 17.7392L104.74 14.8486C104.994 13.8704 104.284 13.4018 103.663 13.3842L97.1438 13.393L96.9827 13.9641H99.7754C100.802 13.9875 101.023 14.7431 100.841 15.4197C100.841 15.4197 100.491 16.6175 100.08 18.1228C99.6799 19.5784 98.3044 19.6223 98.1075 19.6223H95.3894L95.1448 20.3105H121.765C121.806 20.1641 121.994 19.6809 121.997 19.6662C122.006 19.634 121.991 19.6282 121.968 19.6223Z" fill="black"/>
</g>
<defs>
<clipPath id="clip0_1915_195">
<rect width="122" height="48" fill="white"/>
</clipPath>
</defs>
</svg>
