<svg width="49" height="48" viewBox="0 0 49 48" fill="none" xmlns="http://www.w3.org/2000/svg">
<g clip-path="url(#clip0_1916_360)">
<rect width="49" height="48" fill="white"/>
<path fill-rule="evenodd" clip-rule="evenodd" d="M0 24.501C0 10.9693 10.9688 0 24.5 0C38.0312 0 49 10.9693 49 24.501C49 38.0307 38.0312 49 24.5 49C10.9689 49 0 38.0328 0 24.501ZM24.5 0.406588C11.1934 0.406588 0.406572 11.1938 0.406572 24.501C0.406572 37.8082 11.1934 48.5934 24.5 48.5934C37.8066 48.5934 48.5934 37.8061 48.5934 24.501C48.5934 11.1938 37.8066 0.406588 24.5 0.406588Z" fill="#221F1F"/>
<path fill-rule="evenodd" clip-rule="evenodd" d="M48.2093 24.501C48.2093 11.4048 37.5937 0.790772 24.5001 0.790772C11.4044 0.788739 0.788818 11.4048 0.788818 24.501C0.788818 37.5952 11.4044 48.2112 24.5001 48.2112C37.5937 48.2112 48.2093 37.5952 48.2093 24.501Z" fill="black"/>
<path fill-rule="evenodd" clip-rule="evenodd" d="M14.2402 11.1729C14.1488 10.5387 13.7686 10.0081 13.1832 9.74175C12.5957 9.47544 11.9147 9.57505 11.3963 9.94098C11.3536 9.97147 11.315 10.0081 11.2743 10.0386C11.3597 9.74582 11.3861 9.45104 11.3129 9.15016C11.2418 8.85742 11.0873 8.58704 10.8718 8.37765C10.4327 7.9487 9.76592 7.80842 9.19062 8.02392C8.92025 8.12556 8.67834 8.29836 8.49742 8.52402C8.39578 8.65209 8.2921 8.78017 8.18842 8.91028C7.65175 9.58115 7.11304 10.252 6.57637 10.9229C6.11491 11.4982 5.65345 12.0756 5.19199 12.6509C5.1615 12.6895 5.13101 12.7261 5.10051 12.7647C5.09848 12.7668 5.15947 12.8135 5.16353 12.8176C5.34242 12.9619 5.52132 13.1042 5.70021 13.2486C6.37715 13.7893 7.05409 14.3321 7.73103 14.8749C8.39984 15.4116 9.07068 15.9483 9.74153 16.485C9.91229 16.6212 10.083 16.7574 10.2538 16.8957C10.2599 16.9018 10.3006 16.9424 10.3087 16.9323C10.3433 16.8896 10.3758 16.8469 10.4103 16.8062C10.8698 16.2309 11.3312 15.6576 11.7906 15.0823C12.3416 14.3931 12.8925 13.706 13.4454 13.0168C13.73 12.6611 14.0451 12.3256 14.1793 11.8804C14.2504 11.6487 14.2606 11.4088 14.2402 11.1729ZM8.3043 13.1144C8.0258 12.8908 7.74729 12.6672 7.46879 12.4456C7.36308 12.3602 7.25534 12.2748 7.14963 12.1894C7.1476 12.1874 7.25941 12.0491 7.26754 12.041C7.78592 11.3925 8.30633 10.744 8.82471 10.0955C8.96091 9.92472 9.08492 9.74175 9.2943 9.65434C9.58093 9.53642 9.91839 9.61164 10.1278 9.84137C10.2965 10.0264 10.3514 10.2805 10.2965 10.5204C10.2355 10.7359 10.083 10.8944 9.94481 11.0632C9.67241 11.4047 9.39798 11.7462 9.12557 12.0878C8.85114 12.4293 8.57873 12.7729 8.3043 13.1144ZM12.4229 12.3155C12.246 12.535 12.0712 12.7566 11.8943 12.9762C11.4105 13.582 10.9247 14.1858 10.4408 14.7916C10.4388 14.7936 10.4266 14.8139 10.4225 14.8119C10.3981 14.7916 10.3717 14.7712 10.3473 14.753C10.2152 14.6472 10.0851 14.5415 9.95295 14.4358C9.72527 14.2529 9.49555 14.0699 9.26787 13.8869C9.70697 13.338 10.1461 12.7891 10.5852 12.2402C10.7986 11.9739 11.0141 11.7056 11.2275 11.4393C11.38 11.2482 11.5752 11.112 11.8293 11.1038C12.1342 11.0937 12.4005 11.2726 12.5306 11.5429C12.6384 11.8032 12.6018 12.0939 12.4229 12.3155Z" fill="white"/>
<path fill-rule="evenodd" clip-rule="evenodd" d="M39.3195 24.5011C39.3195 16.3164 32.6842 9.68091 24.5 9.68091C16.3157 9.68091 9.68042 16.3144 9.68042 24.5011C9.68042 32.6857 16.3157 39.3212 24.5 39.3212C32.6842 39.3192 39.3195 32.6857 39.3195 24.5011Z" fill="white"/>
<path fill-rule="evenodd" clip-rule="evenodd" d="M24.5 10.4312C16.8199 10.6304 10.6318 16.8207 10.4326 24.4991H24.5V10.4312Z" fill="black"/>
<path fill-rule="evenodd" clip-rule="evenodd" d="M24.5 38.5689C32.1801 38.3697 38.3682 32.1794 38.5694 24.501H24.5V38.5689Z" fill="black"/>
<path fill-rule="evenodd" clip-rule="evenodd" d="M40.3075 8.28208L39.0736 7.1355L35.0627 12.4028L36.2987 13.5494L40.6958 11.5327L37.7644 15.3811L38.6142 16.8387L44.6294 14.078L43.7817 12.6204L40.3096 14.2142L42.7774 10.9717L41.698 9.62382L37.9941 11.3213L40.3075 8.28208Z" fill="white"/>
<path fill-rule="evenodd" clip-rule="evenodd" d="M22.3188 4.24674L23.8821 8.69279H25.1181L26.6813 4.24674L26.846 8.69279L28.576 8.93878L28.3279 2.27072L26.106 2.02271L24.5001 6.71677L22.8941 2.02271L20.6722 2.27072L20.4242 8.93878L22.1542 8.69279L22.3188 4.24674Z" fill="white"/>
</g>
<defs>
<clipPath id="clip0_1916_360">
<rect width="49" height="48" fill="white"/>
</clipPath>
</defs>
</svg>
